<svg width="28" height="28" viewBox="0 0 28 28" fill="none" xmlns="http://www.w3.org/2000/svg">
<g clip-path="url(#clip0_288_1966)">
<path d="M21.2917 -11.0385H16.4792V-12.5192C16.4792 -12.912 16.3102 -13.2886 16.0093 -13.5663C15.7085 -13.844 15.3005 -14 14.875 -14C14.4495 -14 14.0415 -13.844 13.7407 -13.5663C13.4398 -13.2886 13.2708 -12.912 13.2708 -12.5192V-11.0385H-2.77083V-12.5192C-2.77083 -12.912 -2.93984 -13.2886 -3.24068 -13.5663C-3.54152 -13.844 -3.94955 -14 -4.375 -14C-4.80045 -14 -5.20848 -13.844 -5.50932 -13.5663C-5.81016 -13.2886 -5.97917 -12.912 -5.97917 -12.5192V-11.0385H-10.7917C-11.6426 -11.0385 -12.4586 -10.7264 -13.0603 -10.171C-13.662 -9.61565 -14 -8.86237 -14 -8.07692V21.5385C-14 22.3239 -13.662 23.0772 -13.0603 23.6326C-12.4586 24.188 -11.6426 24.5 -10.7917 24.5H21.2917C22.1426 24.5 22.9586 24.188 23.5603 23.6326C24.162 23.0772 24.5 22.3239 24.5 21.5385V-8.07692C24.5 -8.86237 24.162 -9.61565 23.5603 -10.171C22.9586 -10.7264 22.1426 -11.0385 21.2917 -11.0385ZM-5.97917 -8.07692V-6.59615C-5.97917 -6.20343 -5.81016 -5.82679 -5.50932 -5.54909C-5.20848 -5.27139 -4.80045 -5.11538 -4.375 -5.11538C-3.94955 -5.11538 -3.54152 -5.27139 -3.24068 -5.54909C-2.93984 -5.82679 -2.77083 -6.20343 -2.77083 -6.59615V-8.07692H13.2708V-6.59615C13.2708 -6.20343 13.4398 -5.82679 13.7407 -5.54909C14.0415 -5.27139 14.4495 -5.11538 14.875 -5.11538C15.3005 -5.11538 15.7085 -5.27139 16.0093 -5.54909C16.3102 -5.82679 16.4792 -6.20343 16.4792 -6.59615V-8.07692H21.2917V-2.15385H-10.7917V-8.07692H-5.97917ZM21.2917 21.5385H-10.7917V0.807693H21.2917V21.5385ZM7.65625 7.47115C7.65625 7.91046 7.51512 8.33989 7.25072 8.70516C6.98632 9.07043 6.61051 9.35512 6.17083 9.52323C5.73115 9.69135 5.24733 9.73533 4.78056 9.64963C4.3138 9.56393 3.88504 9.35238 3.54852 9.04175C3.212 8.73111 2.98283 8.33534 2.88998 7.90448C2.79714 7.47362 2.84479 7.02702 3.02691 6.62116C3.20904 6.21529 3.51745 5.8684 3.91316 5.62433C4.30887 5.38027 4.77409 5.25 5.25 5.25C5.88818 5.25 6.50021 5.48401 6.95147 5.90056C7.40273 6.31711 7.65625 6.88207 7.65625 7.47115ZM16.4792 7.47115C16.4792 7.91046 16.338 8.33989 16.0736 8.70516C15.8092 9.07043 15.4334 9.35512 14.9937 9.52323C14.5541 9.69135 14.0702 9.73533 13.6035 9.64963C13.1367 9.56393 12.708 9.35238 12.3714 9.04175C12.0349 8.73111 11.8057 8.33534 11.7129 7.90448C11.6201 7.47362 11.6677 7.02702 11.8498 6.62116C12.032 6.21529 12.3404 5.8684 12.7361 5.62433C13.1318 5.38027 13.597 5.25 14.0729 5.25C14.7111 5.25 15.3231 5.48401 15.7744 5.90056C16.2256 6.31711 16.4792 6.88207 16.4792 7.47115ZM-1.16667 14.875C-1.16667 15.3143 -1.30779 15.7437 -1.57219 16.109C-1.83659 16.4743 -2.2124 16.759 -2.65208 16.9271C-3.09177 17.0952 -3.57559 17.1392 -4.04235 17.0535C-4.50912 16.9678 -4.93787 16.7562 -5.27439 16.4456C-5.61091 16.135 -5.84009 15.7392 -5.93293 15.3083C-6.02578 14.8775 -5.97813 14.4309 -5.796 14.025C-5.61388 13.6191 -5.30546 13.2722 -4.90976 13.0282C-4.51405 12.7841 -4.04883 12.6538 -3.57292 12.6538C-2.93474 12.6538 -2.3227 12.8879 -1.87144 13.3044C-1.42018 13.721 -1.16667 14.2859 -1.16667 14.875ZM7.65625 14.875C7.65625 15.3143 7.51512 15.7437 7.25072 16.109C6.98632 16.4743 6.61051 16.759 6.17083 16.9271C5.73115 17.0952 5.24733 17.1392 4.78056 17.0535C4.3138 16.9678 3.88504 16.7562 3.54852 16.4456C3.212 16.135 2.98283 15.7392 2.88998 15.3083C2.79714 14.8775 2.84479 14.4309 3.02691 14.025C3.20904 13.6191 3.51745 13.2722 3.91316 13.0282C4.30887 12.7841 4.77409 12.6538 5.25 12.6538C5.88818 12.6538 6.50021 12.8879 6.95147 13.3044C7.40273 13.721 7.65625 14.2859 7.65625 14.875ZM16.4792 14.875C16.4792 15.3143 16.338 15.7437 16.0736 16.109C15.8092 16.4743 15.4334 16.759 14.9937 16.9271C14.5541 17.0952 14.0702 17.1392 13.6035 17.0535C13.1367 16.9678 12.708 16.7562 12.3714 16.4456C12.0349 16.135 11.8057 15.7392 11.7129 15.3083C11.6201 14.8775 11.6677 14.4309 11.8498 14.025C12.032 13.6191 12.3404 13.2722 12.7361 13.0282C13.1318 12.7841 13.597 12.6538 14.0729 12.6538C14.7111 12.6538 15.3231 12.8879 15.7744 13.3044C16.2256 13.721 16.4792 14.2859 16.4792 14.875Z" fill="black"/>
</g>
<defs>
<clipPath id="clip0_288_1966">
<rect width="28" height="28" fill="white"/>
</clipPath>
</defs>
</svg>
